<?xml version="1.0" encoding="UTF-8"?>
<svg id="Layer_1" data-name="Layer 1" xmlns="http://www.w3.org/2000/svg" viewBox="0 0 1124.42 894.87">
  <defs>
    <style>
      .cls-1 {
        stroke-width: 0px;
      }

      .cls-1, .cls-2, .cls-3, .cls-4 {
        fill: #231f20;
      }

      .cls-2 {
        font-family: New-Romantics, 'New Romantics';
        font-size: 95px;
      }

      .cls-3 {
        stroke-width: 13px;
      }

      .cls-3, .cls-4 {
        stroke: #fff;
        stroke-miterlimit: 10;
      }

      .cls-4 {
        stroke-width: 7px;
      }
    </style>
  </defs>
  <text class="cls-2" transform="translate(410.55 863.05)"><tspan x="0" y="0">Thresher</tspan></text>
  <path class="cls-1" d="M24.95,393.55c16.18-24.38,19.42-27.02,23.06-31.12,2.28-2.5,4.1-5.76,9.1-7.03,8.79-2.25,10.09.39,20.79,7.11,13.42,8.43,24.3,15.78,35.92,21.47,17.77,8.66,36.57,12.99,56.4,12.99,33.5,0,60.27-12.76,80.32-38.28,18.46-23.47,27.69-52.52,27.69-87.16s-9.23-62.89-27.69-86.13c-20.05-25.06-46.83-37.6-80.32-37.6-19.37,0-38.05,4.56-56.05,13.67-11.85,6.15-13.93,12.26-29.16,18.51-10.89,4.47-17.8,4.95-21.41,5.27-2.72.25-10.4-.34-12.98-1.61-4.07-2.46-10.67-4.63-26.51-32.44C8.26,123.42.34,107.36.34,103.03c0-3.87,2.28-8.32,6.84-13.33C49.11,44.36,106.98,21.68,180.81,21.68c67.91,0,123.85,25.29,167.82,75.88,42.16,48.31,63.23,107.1,63.23,176.37s-21.53,130.8-64.6,177.73c-44.2,48.54-101.86,72.8-172.95,72.8s-125.21-24.95-167.14-74.85c-4.79-5.92-7.18-10.71-7.18-14.36,0-2.5,8.32-16.41,24.95-41.7Z"/>
  <path class="cls-1" d="M311.97,706.92c-1.1,2.36-2.99,5.45-6.23,10-29.95,35.64-69.74,53.47-119.39,53.47s-91.96-17.33-123.54-52c-30.76-33.53-46.14-75.84-46.14-126.95s15.05-91.47,45.17-125.98c31.41-36.13,71.37-54.2,119.87-54.2,52.73,0,94.07,16.2,124.02,48.58,3.25,3.58,4.88,6.76,4.88,9.52,0,3.09,4.12,1.29-18.73,1.62-14.91.22-10.22,3.06-13.15,5.5-1.3,1.3-6.48,5.93-6.42,3.97,1.86-64.84-11.33,17.21-18.65,10.7-8.79-7.81-15.89,24.34-24.35,19.94-12.86-6.51-26.21-9.77-40.04-9.77-23.93,0-43.05,8.95-57.37,26.86-13.18,16.6-19.78,37.11-19.78,61.52s6.59,45.49,19.78,62.26c14.32,18.23,33.45,27.34,57.37,27.34,14.16,0,27.59-3.09,40.28-9.28,8.3-4.07,16.76-9.77,25.39-17.09,7.16-6.18,11.94-7.62,12.71-7.89,2.92-1.03,4.07-1.33,7.69-1.89.34-.03,2.04-.29,4.61-.49,8.84-.67,27.91-.52,36.87,12.96,12,18.04-2.74,46.71-4.87,51.27Z"/>
  <circle class="cls-3" cx="145.08" cy="89.85" r="80.49"/>
  <path class="cls-1" d="M291.66,643.21c.52.18,1.06.47,1.02,1.07-.6,1.97-2.18,3.2-4.11,5.91-4.08,5.24-8.62,11.08-12.73,16.36-2.22,2.86-2.97,4.37-7.16,4.45-5.08.44-10.17.88-15.37,1.33-5.18.45-11.3.98-16.14,1.4-3.15.06-8.36,1.46-6.63-.84,5.89-7.21,5.64-13.26,1.95-21.55-.67-2.04-2.23-4.75-.53-6.54,2.49-1.81,6.65-1.38,9.69-1.91,11.54-1.24,26.29-2.5,37.32-1.43l5.47.7,3.76.45s.63,0,1.42.16,2.05.42,2.05.42Z"/>
  <path class="cls-1" d="M264.4,61.93c-.33-17.57,17.98-28.01,27.55-35.35,31.42-21.58,68.08-33.37,105.36-22.42,14.32,4.47,30.76,11.76,43.23,23.83,10.8,11.41,10.48,21.84-1.13,28.43-9.34,5.29-23.35,7.47-34.12,10.63-14.45,3.98-28.79,8.94-41.53,18.51-16.12,11.2-28.3,33.02-47.19,28.76-14.99-2.35-49.66-29.69-52.16-52.16v-.23Z"/>
  <path class="cls-4" d="M265.65,163.14c-14.02-3.94-26.21,8.55-34.1,14.69-23.87,20.67-40.99,47.58-40,79.75.58,12.41,2.99,27.11,10.05,39.63,6.89,11.05,15.31,12.97,23.02,5.04,6.19-6.38,10.87-17.15,15.66-25.12,6.22-10.75,13.19-21.2,23.52-29.41,12.35-10.57,32.38-15.77,32.92-31.8,1.25-12.5-13.41-46.01-30.89-52.71l-.18-.06Z"/>
  <text/>
</svg>